<svg width="369" height="210" viewBox="0 0 369 210" fill="none" xmlns="http://www.w3.org/2000/svg">
<g filter="url(#filter0_d_96_1051)">
<g clip-path="url(#clip0_96_1051)">
<mask id="mask0_96_1051" style="mask-type:alpha" maskUnits="userSpaceOnUse" x="4" y="1" width="363" height="202">
<rect x="4.22656" y="1" width="362" height="202" rx="15" fill="white"/>
</mask>
<g mask="url(#mask0_96_1051)">
<rect x="3.85522" width="360.743" height="203" fill="#5671ED"/>
<path d="M294.996 18.3783C295.333 18.6209 295.808 18.5414 296.048 18.2048L299.801 12.9776C300.044 12.6409 299.966 12.1663 299.628 11.9258C299.291 11.6833 298.816 11.7607 298.576 12.0994L294.823 17.3266C294.58 17.6633 294.66 18.1379 294.996 18.3783Z" fill="#FDAD9B"/>
<path d="M293.428 17.2514C293.765 17.4939 294.239 17.4145 294.48 17.0779L298.678 11.2317C298.921 10.8951 298.843 10.4204 298.505 10.18C298.168 9.93743 297.693 10.0169 297.453 10.3535L293.254 16.1997C293.012 16.5363 293.091 17.0109 293.428 17.2514Z" fill="#FDAD9B"/>
<path d="M291.011 19.991L290.902 19.9963C290.355 20.0234 289.89 19.6026 289.863 19.0554L289.63 14.3357C289.603 13.7886 290.024 13.324 290.571 13.2969L290.679 13.2916C291.224 13.2646 291.691 13.6854 291.718 14.2325L291.952 18.9522C291.979 19.4993 291.558 19.9639 291.011 19.991Z" fill="#FDAD9B"/>
<path d="M291.862 16.1265C292.198 16.369 292.671 16.2896 292.914 15.953L296.278 11.2672C296.52 10.9306 296.441 10.456 296.104 10.2155C295.768 9.97298 295.293 10.0524 295.053 10.3891L291.688 15.0748C291.446 15.4114 291.525 15.886 291.862 16.1265Z" fill="#FDAD9B"/>
<path d="M293.921 22.119C293.921 22.119 297.861 20.3731 298.611 17.4061C298.871 16.3795 294.166 13.193 293.121 13.7554C292.075 14.3179 290.112 17.7051 290.112 17.7051L293.921 22.119Z" fill="#FDAD9B"/>
<path d="M296.55 19.4991C296.886 19.7396 297.359 19.6622 297.599 19.3276L300.957 14.6503C301.198 14.3137 301.12 13.8411 300.786 13.6007C300.449 13.3602 299.977 13.4376 299.736 13.7721L296.378 18.4495C296.138 18.7861 296.215 19.2586 296.55 19.4991Z" fill="#FDAD9B"/>
<path d="M289.712 16.507C283.149 21.7635 273.309 28.8036 263.708 32.4961C261.483 33.3513 260.622 33.6461 259.256 33.9577C258.159 34.2086 257.349 36.4291 257.757 38.313C258.14 40.0798 259.687 41.3636 261.061 41.3135C262.087 41.2737 263.12 40.9956 265.615 40.0819C274.284 36.9079 283.697 30.951 294.465 21.8493L289.715 16.5091L289.712 16.507Z" fill="#FDAD9B"/>
<path d="M269.029 130.208C269.029 130.208 269.556 132.579 271.3 132.937C273.044 133.294 277.836 132.985 276.389 134.86C275.559 135.935 270.727 136.293 269.393 136.552C268.059 136.813 266.922 137.639 265.757 136.941C264.475 136.173 264.609 131.074 264.609 131.074C264.609 131.074 265.876 131.448 266.905 131.218C268.387 130.888 269.027 130.208 269.027 130.208H269.029Z" fill="#66192D"/>
<path d="M250.511 133.834C250.511 133.834 251.037 136.205 252.781 136.562C254.525 136.92 259.317 136.61 257.871 138.484C257.04 139.559 252.208 139.916 250.874 140.175C249.54 140.437 248.403 141.263 247.238 140.564C245.957 139.797 246.09 134.697 246.09 134.697C246.09 134.697 247.357 135.071 248.386 134.841C249.869 134.511 250.508 133.832 250.508 133.832L250.511 133.834Z" fill="#66192D"/>
<path d="M268.226 62.5277C268.226 62.5277 270.478 72.4448 271.039 92.2059C271.444 106.472 271.457 120.924 271.432 127.86C271.423 130.34 269.757 132.479 267.396 133.041L266.127 133.342C263.574 133.949 261.052 132.148 260.726 129.482L255.116 83.696L253.002 68.6791L268.224 62.5298L268.226 62.5277Z" fill="#366F90"/>
<path d="M241.762 75.5875C242 76.8107 248.967 76.152 257.431 74.4459C265.895 72.7418 272.557 71.0377 272.318 69.8145C272.08 68.5913 265.029 68.3112 256.565 70.0173C248.101 71.7214 241.524 74.3643 241.762 75.5875Z" fill="#66192D"/>
<path d="M263.234 72.3278L253.308 132.705C253.03 135.264 251.18 137.344 248.715 137.871L247.64 138.101C245.101 138.643 242.693 136.669 242.657 134.016V76.0998C242.672 75.4286 244.882 74.6884 245.515 74.5086C250.77 73.0199 263.098 69.8814 263.234 72.3299V72.3278Z" fill="#366F90"/>
<path d="M242.95 41.5873C242.95 41.5873 245.04 34.6288 253.713 34.5117C257.812 34.4553 262.284 34.9571 264.67 42.0557C266.813 48.4288 270.823 56.9638 272.316 69.8166C272.316 69.8166 257.987 67.41 241.741 75.485C241.741 75.485 238.743 56.7756 239.753 45.5977C240.037 42.4509 242.224 43.8183 242.95 41.5873Z" fill="#FFBA41"/>
<path d="M235.381 39.1682L243.18 45.1001C243.18 45.1001 263.643 46.8042 264.906 42.7374C266.771 36.7323 262.615 32.0299 262.615 32.0299C262.615 32.0299 255.506 33.6922 252.024 34.4324C250.763 34.7 247.715 35.0178 246.464 35.2206C237.735 36.6341 235.383 39.1682 235.383 39.1682H235.381Z" fill="#FFBA41"/>
<path d="M257.835 106.113L257.527 106.102L258.249 86.3682C258.61 83.4702 260.001 80.8503 262.167 78.9768L262.368 79.2089C260.26 81.0343 258.907 83.5852 258.556 86.3933L257.835 106.113Z" fill="#020202"/>
<path d="M255.405 32.0821L255.366 31.9901C255.366 31.9901 256.417 31.5301 256.595 30.7335C256.687 30.3216 256.532 29.8825 256.135 29.4351C255.949 29.2239 255.776 29.0336 255.619 28.858C254.536 27.6557 254.13 27.2041 254.168 26.0583L254.268 26.0624C254.23 27.1685 254.598 27.5783 255.692 28.7911C255.849 28.9667 256.022 29.157 256.208 29.3682C256.629 29.8428 256.792 30.3091 256.691 30.7565C256.501 31.6033 255.447 32.0633 255.403 32.0821H255.405Z" fill="#66192D"/>
<path d="M254.217 26.0603C254.217 26.0603 254.138 27.8397 255.587 29.433C257.036 31.0262 256.03 32.5526 254.372 32.1323C252.714 31.712 252.471 33.7737 250.318 33.0335C248.164 32.2933 254.217 26.0603 254.217 26.0603Z" fill="#66192D"/>
<path d="M246.462 35.2206C247.294 34.9801 247.94 34.3194 248.139 33.4768L248.766 30.8339L248.948 30.0665L250.021 25.5564L250.468 29.9578L250.736 32.5986L250.813 33.3513C250.876 33.966 251.394 34.4281 252.011 34.4302H252.022C252.434 34.8965 253.063 35.8813 251.813 36.5337C250.341 37.3031 247.608 36.5169 246.449 35.2206C246.454 35.2206 246.458 35.2185 246.462 35.2164V35.2206Z" fill="#FDAD9B"/>
<path d="M248.752 30.7627C248.756 30.7857 248.763 30.8108 248.769 30.8338C249.118 32.2159 250.73 32.609 250.73 32.609L250.739 32.6006L250.471 29.9598C249.984 29.872 249.3 29.8135 248.951 30.0685C248.769 30.2024 248.677 30.4198 248.752 30.7648V30.7627Z" fill="#66192D"/>
<path d="M251.223 31.2632C253.478 30.8689 254.911 28.2937 254.425 25.5114C253.938 22.729 251.716 20.7932 249.461 21.1874C247.207 21.5817 245.774 24.1569 246.26 26.9392C246.747 29.7216 248.969 31.6575 251.223 31.2632Z" fill="#FDAD9B"/>
<path d="M246.937 27.5971C247.476 27.9588 248.131 27.8898 248.398 27.4445C248.666 26.9991 248.446 26.3467 247.905 25.9871C247.365 25.6254 246.711 25.6944 246.443 26.1377C246.176 26.583 246.395 27.2354 246.937 27.595V27.5971Z" fill="#FDAD9B"/>
<path d="M253.111 29.0921C253.111 29.0921 251.723 29.3681 250.243 29.1214C250.243 29.1214 250.368 30.516 251.894 30.3446C252.783 30.2442 253.113 29.0921 253.113 29.0921H253.111Z" fill="#E9633E"/>
<path d="M253.111 29.0921C253.111 29.0921 252.823 29.4308 252.034 29.5646C251.246 29.6985 250.24 29.1214 250.24 29.1214C250.24 29.1214 252.001 29.2886 253.109 29.0921H253.111Z" fill="white"/>
<path d="M250.745 26.1962C250.77 26.1836 250.791 26.1606 250.797 26.1293C250.807 26.0791 250.776 26.0289 250.724 26.0185C250.694 26.0122 250.013 25.7989 249.567 26.4973C249.54 26.5412 249.551 26.5997 249.595 26.629C249.639 26.6583 249.689 26.6395 249.726 26.6018C250.103 26.2401 250.661 26.1983 250.686 26.2045C250.707 26.2087 250.728 26.2045 250.745 26.1983V26.1962Z" fill="#080435"/>
<path d="M250.188 27.3462C250.22 27.57 250.377 27.731 250.538 27.708C250.699 27.685 250.805 27.4863 250.774 27.2626C250.742 27.0389 250.586 26.8779 250.425 26.9009C250.264 26.9239 250.157 27.1225 250.19 27.3462H250.188Z" fill="#080435"/>
<path d="M254.144 26.1022C254.173 26.1022 254.201 26.0875 254.217 26.0603C254.247 26.0164 254.236 25.9579 254.192 25.9286C254.167 25.9119 253.617 25.4561 252.942 25.9307C252.9 25.96 252.888 26.0185 252.917 26.0624C252.946 26.1063 252.998 26.1063 253.049 26.0875C253.534 25.8972 254.067 26.0708 254.088 26.0854C254.104 26.098 254.125 26.1022 254.144 26.1022Z" fill="#080435"/>
<path d="M253.193 26.951C253.136 27.1685 253.22 27.3776 253.379 27.4194C253.538 27.4591 253.711 27.3148 253.766 27.0974C253.822 26.8799 253.739 26.6708 253.58 26.629C253.421 26.5893 253.247 26.7336 253.193 26.951Z" fill="#080435"/>
<path d="M251.353 21.7907C251.353 21.7907 251.57 23.5533 249.44 24.2329C247.309 24.9124 245.965 26.1001 246.533 27.6201C247.102 29.1423 251.19 31.7873 248.825 33.5039C246.46 35.2206 246.598 32.7679 243.89 33.805C241.183 34.8421 240.022 31.1872 241.572 28.6761C243.121 26.167 241.335 20.5529 248.618 19.543C255.901 18.531 254.259 24.7702 254.259 24.7702C254.259 24.7702 251.685 23.7206 251.351 21.7907H251.353Z" fill="#66192D"/>
<path d="M248.139 33.9576L248.108 33.9074C248.604 33.598 248.865 33.2383 248.905 32.8055C249.016 31.6074 247.351 30.0853 245.883 28.745C245.494 28.3895 245.126 28.0529 244.794 27.7288C243.872 26.8235 243.592 25.6024 244.06 24.5381C244.581 23.3567 245.842 22.6772 247.357 22.7588C247.47 22.765 247.581 22.7671 247.688 22.7671C250.222 22.7671 250.996 21.0944 251.004 21.0777L251.058 21.1028C251.05 21.1216 250.193 22.972 247.353 22.8194C245.867 22.7358 244.625 23.4069 244.114 24.5632C243.648 25.6191 243.918 26.7858 244.836 27.687C245.166 28.0111 245.534 28.3477 245.923 28.7032C247.401 30.0539 249.078 31.5865 248.965 32.8139C248.924 33.2592 248.648 33.6461 248.139 33.9618V33.9576Z" fill="white"/>
<path d="M254.437 29.4518C254.22 29.4894 253.998 29.4664 253.781 29.3765C252.806 28.9834 252.187 27.3923 252.401 25.8325C252.53 24.8769 252.953 24.1033 253.526 23.7708C253.869 23.5722 254.241 23.5408 254.604 23.6893C255.579 24.0782 256.198 25.6673 255.984 27.2313C255.855 28.191 255.432 28.9625 254.86 29.295C254.724 29.3724 254.582 29.4246 254.437 29.4497V29.4518ZM252.585 25.8617C252.382 27.3421 252.951 28.8454 253.852 29.2093C254.157 29.3326 254.473 29.3034 254.768 29.1382C255.292 28.8329 255.679 28.1095 255.803 27.2083C256.005 25.7258 255.437 24.2225 254.535 23.8607C254.23 23.7374 253.914 23.7646 253.618 23.9318C253.093 24.2371 252.706 24.9585 252.583 25.8617H252.585Z" fill="#66192D"/>
<g opacity="0.3">
<path d="M247.508 25.6986C247.433 27.1936 248.225 28.6468 249.281 28.9437C250.337 29.2406 251.253 28.2683 251.328 26.7713C251.403 25.2763 250.611 23.8231 249.555 23.5262C248.499 23.2293 247.583 24.2016 247.506 25.6986H247.508Z" fill="white"/>
</g>
<g opacity="0.3">
<path d="M252.382 25.9599C252.307 27.4633 253.018 28.952 253.971 29.2887C254.924 29.6253 255.759 28.6802 255.834 27.1768C255.909 25.6735 255.198 24.1848 254.245 23.8481C253.291 23.5115 252.457 24.4566 252.382 25.9599Z" fill="white"/>
</g>
<path d="M250 29.0022C249.781 29.0399 249.553 29.0294 249.323 28.9646C248.16 28.6509 247.288 27.0932 247.378 25.4916C247.428 24.5632 247.786 23.7917 248.359 23.3777C248.76 23.0912 249.216 23.0076 249.682 23.1352C250.843 23.4509 251.715 25.0086 251.627 26.6081C251.577 27.5407 251.217 28.3122 250.642 28.7262C250.439 28.8705 250.224 28.9646 250 29.0043V29.0022ZM249.038 23.2794C248.838 23.315 248.645 23.3965 248.468 23.5262C247.947 23.9046 247.608 24.6427 247.562 25.5041C247.479 27.02 248.29 28.4941 249.371 28.7889C249.781 28.8956 250.184 28.8224 250.535 28.5778C251.056 28.2014 251.397 27.4612 251.445 26.5977C251.527 25.0818 250.715 23.6077 249.636 23.3129C249.434 23.2585 249.233 23.2481 249.04 23.2815L249.038 23.2794Z" fill="#66192D"/>
<path d="M252.67 26.466C252.632 26.4723 252.59 26.466 252.555 26.4451C252.534 26.4325 252.034 26.1649 251.3 26.443C251.213 26.4723 251.112 26.4325 251.077 26.3447C251.043 26.2569 251.087 26.1565 251.177 26.1252C252.059 25.7739 252.697 26.1315 252.726 26.1461C252.808 26.1942 252.837 26.3008 252.789 26.3824C252.764 26.4305 252.718 26.4597 252.67 26.4681V26.466Z" fill="#66192D"/>
<path d="M235.343 39.2247C234.795 40.0067 235.836 41.717 238.538 43.488C241.239 45.259 242.531 46.6913 243.673 45.7295C244.606 44.9454 244.006 41.9031 240.386 39.8896C238.314 38.7375 235.732 38.6643 235.343 39.2226V39.2247Z" fill="#66192D"/>
<path d="M245.824 74.4207C245.824 74.4207 256.917 70.2786 268.609 70.5567C269.146 70.5693 269.59 70.9791 269.644 71.5144L270.066 75.7756L257.766 75.1525L245.827 74.4228L245.824 74.4207Z" fill="#366F90"/>
<path d="M258.949 70.8035L260.38 68.1188C260.536 67.3138 258.502 64.6354 257.684 64.7169C251.694 65.317 246.325 63.1007 243.159 58.7077C240.913 55.5901 241.369 48.9223 242.571 45.7044C243.186 44.0567 240.662 40.0861 237.256 39.3104C236.378 39.1097 235.479 39.2017 235.101 40.0192C234.509 41.2968 233.679 43.304 233.022 45.7211C231.462 51.4606 231.682 56.736 233.656 60.9742C236.077 66.1764 246.026 72.93 257.787 74.2912C258.667 74.3936 258.78 71.6733 258.949 70.8035Z" fill="#FDAD9B"/>
<path d="M217.466 61.2062L184.227 182.681L290.835 186.303L299.941 59.153L217.466 61.2062Z" fill="#553E93"/>
<path d="M299.941 59.153L304.606 62.1347V181.747L290.835 186.303L299.941 59.153Z" fill="#786AB5"/>
<path d="M304.606 62.1347L309.102 60.9449L314.436 182.522L304.606 181.747V62.1347Z" fill="#553E93"/>
<path d="M237.102 72.1543C238.256 72.1543 239.193 71.2649 239.193 70.1679C239.193 69.0709 238.256 68.1815 237.102 68.1815C235.947 68.1815 235.011 69.0709 235.011 70.1679C235.011 71.2649 235.947 72.1543 237.102 72.1543Z" fill="#66192D"/>
<path d="M237.227 72.8903C236.319 72.8903 235.276 72.3529 234.688 71.5835C234.254 71.0126 234.12 70.3854 234.314 69.8187C234.847 68.2715 236.02 67.3473 237.453 67.3473C239.033 67.3473 239.859 68.813 239.859 70.262C239.859 71.711 238.726 72.8903 237.225 72.8903H237.227ZM235.335 70.1366C235.226 70.4544 235.395 70.7743 235.556 70.9875C235.941 71.4935 236.66 71.8741 237.227 71.8741C238.147 71.8741 238.791 71.2113 238.791 70.2641C238.791 69.5009 238.435 68.3677 237.455 68.3677C236.474 68.3677 235.721 69.0137 235.335 70.1386V70.1366Z" fill="#66192D"/>
<path d="M267.984 72.1543C269.139 72.1543 270.075 71.2649 270.075 70.1679C270.075 69.0709 269.139 68.1815 267.984 68.1815C266.829 68.1815 265.893 69.0709 265.893 70.1679C265.893 71.2649 266.829 72.1543 267.984 72.1543Z" fill="#66192D"/>
<path d="M268.112 72.8903C267.204 72.8903 266.161 72.3529 265.573 71.5835C265.138 71.0126 265.004 70.3854 265.199 69.8187C265.732 68.2715 266.905 67.3473 268.337 67.3473C269.918 67.3473 270.744 68.813 270.744 70.262C270.744 71.711 269.611 72.8903 268.109 72.8903H268.112ZM266.217 70.1366C266.108 70.4544 266.278 70.7743 266.439 70.9875C266.824 71.4935 267.543 71.8741 268.109 71.8741C269.029 71.8741 269.673 71.2113 269.673 70.2641C269.673 69.5009 269.318 68.3677 268.337 68.3677C267.357 68.3677 266.604 69.0137 266.217 70.1386V70.1366Z" fill="#66192D"/>
<path d="M246.162 86.1821C245.377 86.1821 244.598 86.1319 243.822 86.0295C241.227 85.6887 239.178 84.5512 237.729 82.6464C234.218 78.0255 235.636 70.4753 235.697 70.1575C235.841 69.4194 236.585 68.9322 237.361 69.0702C238.137 69.2061 238.649 69.9149 238.507 70.6509C238.488 70.7513 237.258 77.3982 240.05 81.0636C241.037 82.3599 242.398 83.1043 244.213 83.3427C248.945 83.9616 253.258 82.2596 256.813 79.8697C262.805 75.8405 266.644 69.8606 266.705 69.7644C267.11 69.1225 267.986 68.9134 268.664 69.2981C269.339 69.6828 269.561 70.5171 269.155 71.159C269.049 71.3284 266.479 75.3763 262.132 79.2445C261.059 80.2001 259.972 81.0573 258.872 81.8184C254.713 84.7018 250.4 86.1842 246.162 86.1842V86.1821Z" fill="#C8C1E1"/>
<path d="M243.278 56.8426C243.278 56.8426 240.428 56.14 239.805 58.7453C239.01 62.0657 241.204 66.9625 241.737 64.8654C242.209 63.0066 242.247 60.2068 242.247 60.2068C242.247 60.2068 242.251 67.3285 243.729 66.8225C245.208 66.3165 245.122 60.1922 245.122 60.1922C245.122 60.1922 245.781 67.1256 247.023 66.1952C248.265 65.2647 248.221 59.7029 248.221 59.7029C248.221 59.7029 248.499 66.513 249.916 65.3986C251.334 64.2841 250.477 60.7902 250.452 59.2283C250.429 57.7521 249.469 57.288 248.045 57.4134C248.045 57.4134 246.556 56.715 245.647 57.0308C245.298 57.152 244.944 56.8238 244.687 56.7987C244.192 56.7485 243.282 56.8426 243.282 56.8426H243.278Z" fill="#FDAD9B"/>
<g opacity="0.5">
<path d="M239.437 60.6773C239.42 60.5894 239.05 58.4985 240.085 57.3506C240.572 56.8112 241.289 56.5728 242.218 56.6481L242.201 56.8655C241.346 56.7965 240.689 57.0098 240.248 57.497C239.284 58.5634 239.648 60.6166 239.652 60.6375L239.437 60.6773Z" fill="#EC865C"/>
</g>
<g opacity="0.5">
<path d="M290.716 19.1771C289.585 18.0961 289.602 16.5676 289.604 16.5049L289.821 16.5091C289.821 16.5237 289.807 18.0083 290.867 19.0203L290.716 19.1792V19.1771Z" fill="#EC865C"/>
</g>
<path d="M286.505 119.967L260.271 101.55C257.653 99.7123 257.166 96.0281 259.217 93.5713L264.772 86.9201C266.562 84.777 269.682 84.3274 272.003 85.8789L297.882 103.16C300.393 104.837 301.068 108.231 299.391 110.742L294.191 118.528C292.487 121.081 289.016 121.729 286.505 119.967Z" fill="#C8C1E1"/>
<path d="M265.51 92.2687C266.213 91.2149 267.637 90.9326 268.69 91.6352C269.744 92.3377 270.027 93.7616 269.324 94.8154C268.283 96.3731 267.198 96.1515 266.144 95.449C265.09 94.7464 264.808 93.3225 265.51 92.2687Z" fill="#C8C1E1"/>
<path d="M267.708 96.6345C266.819 96.6345 266.035 95.9111 265.521 95.2796C264.695 94.2676 264.323 93.3309 265.178 92.0471C265.772 91.1563 266.894 90.3012 268.866 91.2776C270.227 91.953 270.309 93.6529 269.684 94.9827C269.215 95.9821 268.617 96.5341 267.908 96.6199C267.842 96.6282 267.775 96.6324 267.71 96.6324L267.708 96.6345ZM267.25 91.6435C266.518 91.6435 266.108 92.091 265.843 92.4903C265.295 93.31 265.362 93.8222 266.14 94.7778C266.733 95.5054 267.344 95.8901 267.81 95.8337C268.23 95.7814 268.617 95.3821 268.962 94.6481C269.422 93.6675 269.416 92.4422 268.513 91.9948C268.009 91.746 267.593 91.6456 267.25 91.6456V91.6435Z" fill="#66192D"/>
<path d="M322.878 112.738C322.878 112.738 313.719 123.025 313.961 124.382C314.204 125.741 323.178 126.485 323.178 126.485L325.773 118.409L322.878 112.737V112.738Z" fill="#FDAD9B"/>
<path d="M335.394 199.096C335.394 199.096 335.34 201.204 333.914 201.799C332.487 202.393 328.355 202.93 329.899 204.285C330.786 205.063 334.962 204.561 336.142 204.561C337.321 204.561 338.428 205.076 339.304 204.285C340.268 203.417 339.304 199.096 339.304 199.096C339.304 199.096 338.286 199.625 337.371 199.603C336.053 199.568 335.394 199.096 335.394 199.096Z" fill="#66192D"/>
<path d="M321.954 135.811C321.954 135.811 321.669 145.327 324.705 163.58C326.897 176.758 329.485 190.039 330.755 196.404C331.209 198.681 333.125 200.345 335.395 200.438L336.615 200.486C339.07 200.584 341.062 198.475 340.883 195.97L337.802 152.899L337.043 138.723L321.954 135.811Z" fill="#FF443C"/>
<path d="M347.776 199.444C347.776 199.444 347.722 201.552 346.297 202.147C344.869 202.741 340.737 203.278 342.281 204.633C343.168 205.411 347.344 204.909 348.524 204.909C349.703 204.909 350.81 205.424 351.686 204.633C352.651 203.765 351.686 199.444 351.686 199.444C351.686 199.444 350.668 199.973 349.753 199.949C348.435 199.916 347.776 199.444 347.776 199.444Z" fill="#66192D"/>
<path d="M335.468 135.811C335.468 135.811 335.182 145.327 338.219 163.58C340.411 176.758 342.999 190.039 344.269 196.404C344.723 198.681 346.639 200.345 348.909 200.438L350.129 200.486C352.584 200.584 354.576 198.475 354.396 195.97L351.316 152.899L350.557 138.723L335.468 135.811Z" fill="#FF443C"/>
<path d="M352.048 146.24C352.019 147.388 345.076 147.843 336.491 147.576C327.904 147.308 321.043 146.121 321.072 144.973C321.102 143.825 328.011 143.152 336.596 143.42C345.183 143.688 352.078 145.094 352.048 146.242V146.24Z" fill="#66192D"/>
<path d="M349.945 113.736C349.945 113.736 348.427 107.719 337.224 107.658C321.069 107.569 322.565 122.414 321.071 144.971C321.071 144.971 336.984 142.722 352.054 145.956C352.054 145.956 353.452 122.93 349.944 113.736H349.945Z" fill="#552748"/>
<path d="M354.081 112.874L346.764 116.923C346.764 116.923 330.744 118.378 326.491 117.676C322.239 116.976 321.072 113.853 321.072 113.853C321.072 113.853 325.603 109.167 333.301 107.916C334.025 107.797 334.775 107.71 335.552 107.66C336.857 107.577 338.166 107.593 339.444 107.738C349.201 108.838 354.081 112.875 354.081 112.875V112.874Z" fill="#552748"/>
<path d="M322.424 145.901C322.424 145.901 331.727 143.165 350.995 146.921L351.143 149.693L322.898 150.69L322.424 145.901Z" fill="#FF443C"/>
<path d="M354.233 113.042C354.854 113.92 353.939 115.654 352.193 116.915C350.445 118.176 348.526 118.487 347.905 117.609C347.285 116.732 348.198 114.999 349.946 113.736C351.693 112.475 353.613 112.164 354.233 113.042Z" fill="#66192D"/>
<path d="M323.865 117.197C323.865 117.197 323.848 117.197 323.841 117.193C323.791 117.18 323.763 117.128 323.776 117.08C324.248 115.373 325.827 113.242 325.844 113.22C325.874 113.179 325.933 113.17 325.974 113.201C326.014 113.231 326.023 113.29 325.992 113.331C325.975 113.351 324.416 115.456 323.954 117.13C323.942 117.171 323.905 117.198 323.865 117.198V117.197Z" fill="#66192D"/>
<path d="M338.822 167.375C338.778 167.375 338.739 167.344 338.731 167.298C338.718 167.22 337.471 159.474 336.613 156.711C336.332 155.804 335.717 154.851 334.788 153.881C334.753 153.844 334.755 153.786 334.79 153.751C334.827 153.716 334.886 153.718 334.919 153.753C335.869 154.745 336.499 155.721 336.789 156.656C337.65 159.431 338.9 167.19 338.913 167.268C338.92 167.318 338.887 167.366 338.837 167.374C338.831 167.374 338.828 167.374 338.822 167.374V167.375Z" fill="#66192D"/>
<path d="M339.726 108.812C340.343 107.928 339.502 107.823 339.265 106.903L338.532 104.053L338.319 103.224L337.064 98.3474L336.636 103.117L336.379 105.979L336.297 106.884C336.242 107.499 336.07 107.579 335.586 108.091C335.39 108.299 334.657 109.143 335.546 109.608C336.342 110.024 338.941 109.935 339.726 108.81V108.812Z" fill="#FDAD9B"/>
<path d="M339.643 103.002C339.643 103.002 344.401 101.513 343.812 97.9901C343.225 94.4669 339.421 101.017 339.421 101.017L339.171 102.841L339.643 103V103.002Z" fill="#66192D"/>
<path d="M338.548 103.978C338.543 104.003 338.537 104.029 338.53 104.055C338.165 105.555 336.386 105.992 336.386 105.992L336.377 105.983L336.634 103.12C337.173 103.022 337.926 102.954 338.317 103.228C338.521 103.37 338.624 103.607 338.548 103.979V103.978Z" fill="#66192D"/>
<path d="M340.82 100.288C341.276 97.5182 339.784 94.9669 337.487 94.5892C335.191 94.2115 332.96 96.1505 332.504 98.9201C332.049 101.69 333.541 104.241 335.838 104.619C338.134 104.996 340.365 103.057 340.82 100.288Z" fill="#FDAD9B"/>
<path d="M340.815 100.296C341.27 97.5268 339.778 94.9755 337.481 94.5978C335.185 94.2201 332.954 96.1591 332.499 98.9286C332.043 101.698 333.535 104.25 335.832 104.627C338.128 105.005 340.359 103.066 340.815 100.296Z" fill="#FDAD9B"/>
<path d="M340.319 99.6082C340.319 99.6082 338.921 99.8433 338.365 98.7899C337.81 97.7364 337.492 96.8404 335.079 96.8515C332.669 96.8626 330.762 95.387 330.904 94.1077C331.049 92.8283 332.38 92.4507 333.57 93.1024C334.761 93.7541 333.611 92.3692 335.02 91.6434C336.429 90.9177 337.995 93.1505 339.337 93.1079C340.68 93.0653 344.712 94.4391 343.81 97.9901L340.317 99.6082H340.319Z" fill="#66192D"/>
<path d="M340.811 100.651C340.376 100.908 339.835 100.802 339.604 100.412C339.374 100.023 339.541 99.4971 339.976 99.2397C340.411 98.9824 340.951 99.0879 341.183 99.4786C341.412 99.8674 341.246 100.393 340.811 100.651Z" fill="#FDAD9B"/>
<path d="M334.133 94.9019C333.646 94.9019 333.289 94.8075 333.066 94.6186C332.711 94.3168 332.694 94.0576 332.798 93.9169C332.92 93.7485 333.246 93.6985 333.575 93.904C334.14 94.2576 334.566 94.2169 334.57 94.2169L334.575 94.2743C334.557 94.2743 334.127 94.3168 333.544 93.954C333.242 93.7651 332.95 93.804 332.844 93.9521C332.755 94.0725 332.778 94.3002 333.103 94.576C333.777 95.1481 335.655 94.626 335.675 94.6223L335.69 94.6779C335.69 94.6779 335.205 94.813 334.646 94.8741C334.46 94.8945 334.288 94.9037 334.131 94.9037L334.133 94.9019Z" fill="white"/>
<path d="M341.69 94.2947C341.209 93.9299 340.604 93.9447 339.904 93.9633C339.548 93.9725 339.182 93.9818 338.784 93.9466C337.586 93.8411 336.625 92.671 336.595 92.5543L336.651 92.5395C336.673 92.6117 337.588 93.7837 338.789 93.8892C339.183 93.9244 339.55 93.9151 339.902 93.9059C340.613 93.8892 341.227 93.8725 341.724 94.2502L341.688 94.2965L341.69 94.2947Z" fill="white"/>
<path d="M342.988 97.3106C342.988 97.3106 342.981 97.3106 342.977 97.3106C342.797 97.2939 342.529 96.7496 342.529 96.4756C342.529 96.3368 342.599 96.309 342.64 96.3034C342.648 96.3034 342.653 96.3034 342.66 96.3034C342.984 96.3034 343.112 97.0977 343.118 97.131V97.1366V97.1421C343.09 97.2791 343.034 97.3106 342.986 97.3106H342.988ZM342.66 96.3608C342.66 96.3608 342.651 96.3608 342.646 96.3608C342.631 96.3608 342.586 96.3664 342.586 96.4756C342.586 96.7311 342.846 97.2403 342.983 97.2532C342.983 97.2532 342.984 97.2532 342.986 97.2532C343.027 97.2532 343.049 97.1903 343.06 97.1347C343.023 96.9107 342.886 96.3608 342.659 96.3608H342.66Z" fill="white"/>
<path d="M335.871 99.486C335.847 99.4768 335.829 99.4564 335.821 99.4286C335.808 99.3824 335.836 99.3361 335.881 99.3231C335.906 99.3157 336.514 99.0898 336.949 99.6989C336.977 99.7378 336.969 99.7897 336.932 99.8193C336.895 99.8471 336.849 99.8322 336.812 99.8026C336.453 99.4953 335.947 99.4842 335.925 99.4897C335.906 99.4953 335.888 99.4934 335.871 99.486Z" fill="#080435"/>
<path d="M336.223 100.478C336.164 100.673 335.999 100.795 335.858 100.752C335.718 100.708 335.651 100.515 335.71 100.321C335.77 100.127 335.934 100.004 336.075 100.047C336.216 100.091 336.282 100.284 336.223 100.478Z" fill="#080435"/>
<path d="M332.73 98.9639C332.711 98.9584 332.696 98.9398 332.691 98.9158C332.682 98.8732 332.704 98.8251 332.741 98.8065C332.763 98.7954 333.25 98.4992 333.587 99.0343C333.607 99.0676 333.602 99.1213 333.57 99.1527C333.539 99.1842 333.504 99.1768 333.476 99.1527C333.196 98.8991 332.791 98.9547 332.772 98.9639C332.757 98.9713 332.743 98.9713 332.73 98.9676V98.9639Z" fill="#080435"/>
<path d="M333.489 99.9155C333.507 100.119 333.404 100.293 333.255 100.308C333.107 100.321 332.974 100.167 332.956 99.9655C332.937 99.7618 333.041 99.5878 333.189 99.573C333.337 99.56 333.47 99.7137 333.489 99.9155Z" fill="#080435"/>
<path d="M332.289 102.406C332.061 102.406 331.841 102.335 331.633 102.198C331.104 101.843 330.749 101.076 330.682 100.149C330.574 98.6399 331.269 97.1532 332.228 96.8366C332.583 96.72 332.939 96.77 333.255 96.9829C333.785 97.3384 334.14 98.1048 334.207 99.0324C334.314 100.541 333.62 102.028 332.661 102.345C332.535 102.385 332.411 102.406 332.287 102.406H332.289ZM332.6 96.9533C332.496 96.9533 332.389 96.9699 332.283 97.0051C331.396 97.2976 330.758 98.701 330.86 100.136C330.921 101.01 331.248 101.724 331.733 102.05C332.004 102.232 332.306 102.274 332.607 102.174C333.494 101.882 334.133 100.478 334.031 99.0435C333.97 98.1696 333.642 97.455 333.157 97.1292C332.981 97.0125 332.792 96.9514 332.6 96.9514V96.9533Z" fill="#FF8548"/>
<g opacity="0.3">
<path d="M338.906 99.2065C338.886 100.645 338.034 101.989 337.005 102.208C335.975 102.426 335.155 101.437 335.175 99.997C335.196 98.5585 336.047 97.2143 337.077 96.9959C338.106 96.7774 338.926 97.7661 338.906 99.2065Z" fill="white"/>
</g>
<g opacity="0.3">
<path d="M334.216 99.1546C334.196 100.601 333.42 101.985 332.485 102.248C331.55 102.511 330.81 101.552 330.83 100.106C330.851 98.6603 331.626 97.2754 332.561 97.0125C333.496 96.7496 334.237 97.7086 334.216 99.1546Z" fill="white"/>
</g>
<path d="M336.649 102.258C336.308 102.258 335.988 102.141 335.71 101.911C335.186 101.478 334.89 100.717 334.898 99.8211C334.912 98.2807 335.846 96.8422 336.979 96.6108C337.436 96.5182 337.869 96.6256 338.232 96.9255C338.756 97.3587 339.052 98.1197 339.043 99.0157C339.028 100.556 338.095 101.997 336.962 102.226C336.856 102.248 336.751 102.258 336.647 102.258H336.649ZM337.293 96.757C337.203 96.757 337.11 96.7663 337.017 96.7848C335.962 96.9996 335.092 98.3622 335.077 99.823C335.07 100.652 335.349 101.382 335.825 101.774C336.145 102.037 336.527 102.134 336.929 102.052C337.984 101.837 338.854 100.475 338.869 99.0139C338.876 98.1845 338.597 97.455 338.121 97.0625C337.877 96.8607 337.593 96.757 337.293 96.757Z" fill="#FF8548"/>
<path d="M335.292 99.7008C335.268 99.7008 335.245 99.6952 335.223 99.686C334.538 99.3694 334.04 99.5989 334.02 99.61C333.938 99.6489 333.838 99.6156 333.799 99.5323C333.761 99.4508 333.794 99.3527 333.875 99.312C333.901 99.299 334.529 99.0009 335.362 99.386C335.445 99.4249 335.48 99.523 335.443 99.6063C335.416 99.6674 335.356 99.7026 335.293 99.7026L335.292 99.7008Z" fill="#FF8548"/>
<path d="M343.832 98.0327L343.793 97.9475C344.484 97.6272 344.334 96.8737 344.332 96.8663L344.423 96.8478C344.423 96.8478 344.588 97.6828 343.83 98.0327H343.832Z" fill="#66192D"/>
<path d="M344.29 99.0472C344.29 99.0472 343.94 98.4714 343.548 98.3714L343.572 98.2807C344.001 98.3918 344.357 98.975 344.371 98.999L344.292 99.0472H344.29Z" fill="#66192D"/>
<path d="M330.358 126.25L337.878 182.252C338.543 187.208 335.066 191.766 330.108 192.431L219.671 207.26C214.713 207.927 210.157 204.448 209.49 199.492L201.97 143.49C201.303 138.532 204.782 133.974 209.74 133.309L320.177 118.48C325.135 117.813 329.691 121.294 330.358 126.25Z" fill="#FF8548"/>
<path d="M312.288 181.729C312.197 181.048 312.675 180.422 313.356 180.33C314.037 180.239 314.617 180.585 314.854 181.23C315.198 182.168 314.48 182.8 313.589 182.918C312.908 183.009 312.38 182.409 312.288 181.728V181.729Z" fill="#C8C1E1"/>
<path d="M317.051 181.089C316.961 180.408 317.438 179.782 318.12 179.689C318.801 179.598 319.651 180.047 319.741 180.726C319.875 181.718 319.145 182.172 318.464 182.263C317.783 182.353 317.142 181.768 317.051 181.087V181.089Z" fill="#C8C1E1"/>
<path d="M321.715 180.519C321.663 179.834 322.111 179.208 322.783 179.065C323.661 178.878 324.25 179.393 324.442 180.054C324.662 180.809 324.431 181.465 323.218 181.628C322.537 181.718 321.782 181.368 321.717 180.519H321.715Z" fill="#C8C1E1"/>
<path d="M312.932 186.519C312.842 185.838 313.24 185.282 313.908 185.123C314.854 184.899 315.395 185.486 315.517 186.162C315.661 186.971 315.012 187.495 314.33 187.585C313.649 187.676 313.023 187.198 312.931 186.517L312.932 186.519Z" fill="#C8C1E1"/>
<path d="M317.57 185.958C317.533 185.271 317.59 184.549 318.764 184.481C319.451 184.44 320.071 184.868 320.164 185.549C320.255 186.23 319.777 186.856 319.096 186.949C318.414 187.041 317.62 186.865 317.572 185.96L317.57 185.958Z" fill="#C8C1E1"/>
<path d="M322.352 185.225C322.309 184.54 322.706 183.894 323.385 183.801C324.448 183.659 324.925 184.27 325.018 184.951C325.109 185.632 324.539 186.215 323.859 186.308C323.18 186.401 322.404 186.069 322.352 185.225Z" fill="#C8C1E1"/>
<path d="M284.352 198.575L217.37 207.57C213.682 208.064 210.155 204.448 209.488 199.492L201.968 143.49C201.301 138.532 203.751 134.113 207.439 133.617L233.447 130.125C233.758 130.301 233.929 130.399 233.929 130.399C233.929 130.399 242.96 131.549 244.695 139.384C246.429 147.217 248.11 154.604 257.61 155.943C267.11 157.282 278.083 160.242 276.922 174.463C275.761 188.683 285.683 185.673 284.35 198.575H284.352Z" fill="#FFBA41"/>
<path d="M333.798 102.398C333.798 102.398 335.092 102.748 336.506 102.611C336.506 102.611 336.299 103.92 334.868 103.659C334.036 103.507 333.798 102.396 333.798 102.396V102.398Z" fill="white"/>
<path d="M292.983 165.757L289.643 164.859C288.564 164.569 288.034 163.35 288.558 162.364L304.34 132.613C304.671 131.988 305.349 131.627 306.054 131.697L307.626 131.858C308.813 131.978 309.529 133.232 309.031 134.317L295.016 164.804C294.662 165.574 293.803 165.978 292.983 165.757Z" fill="#C8C1E1"/>
<path d="M288.204 134.583C283.891 135.157 279.853 139.006 280.064 143.353C280.275 147.7 283.806 150.622 288.153 150.411C292.503 150.2 297.019 146.888 296.808 142.541C296.597 138.193 293.483 133.88 288.204 134.583ZM288.099 145.99C286.312 146.077 285.394 143.959 285.307 142.172C285.22 140.386 286.642 139.308 288.428 139.221C290.215 139.134 291.735 140.513 291.822 142.3C291.909 144.086 289.886 145.905 288.099 145.99Z" fill="#C8C1E1"/>
<path d="M309.581 148.361C305.267 148.935 301.229 152.784 301.44 157.132C301.651 161.479 305.182 164.4 309.529 164.189C313.88 163.978 318.395 160.666 318.184 156.319C317.973 151.972 314.859 147.658 309.581 148.361ZM309.475 159.768C307.689 159.855 306.77 157.737 306.683 155.95C306.596 154.164 308.018 153.086 309.805 152.999C311.591 152.912 313.111 154.291 313.198 156.078C313.285 157.865 311.262 159.683 309.475 159.768Z" fill="#C8C1E1"/>
<path d="M333.014 133.924L332.324 131.791C332.314 131.186 334.138 129.507 334.721 129.671C338.992 130.884 343.175 129.971 346.042 127.192C348.077 125.221 348.61 120.322 348.155 117.83C347.922 116.554 348.342 115.703 349.882 114.886C349.882 114.886 351.208 114.157 352.841 113.879C353.494 113.768 354.144 114.031 354.315 114.673C354.579 115.678 354.92 117.241 355.085 119.08C355.472 123.449 354.629 127.248 352.648 130.069C350.216 133.532 342.119 137.144 333.408 136.609C332.757 136.568 333.027 134.58 333.016 133.926L333.014 133.924Z" fill="#FDAD9B"/>
<g opacity="0.5">
<path d="M351.053 128.91C350.842 128.91 350.647 128.849 350.488 128.724C350.005 128.335 350.057 127.465 350.605 126.785C351.153 126.106 351.989 125.869 352.473 126.257C352.956 126.646 352.904 127.516 352.356 128.196C351.988 128.653 351.486 128.91 351.051 128.91H351.053ZM351.908 126.367C351.564 126.367 351.143 126.589 350.836 126.972C350.399 127.515 350.325 128.211 350.675 128.492C351.025 128.773 351.688 128.553 352.125 128.011C352.562 127.468 352.636 126.772 352.286 126.491C352.182 126.407 352.051 126.369 351.906 126.369L351.908 126.367Z" fill="#EC865C"/>
</g>
<path d="M334.72 129.671C334.72 129.671 333.64 126.407 331.794 125.608C329.947 124.808 326.984 125.184 328.023 125.922C329.062 126.661 330.652 127.237 330.652 127.237C330.652 127.237 327.199 126.165 327.297 127.081C327.395 127.998 330.408 128.901 330.408 128.901C330.408 128.901 326.198 127.953 326.572 128.788C326.946 129.623 330.149 130.321 330.149 130.321C330.149 130.321 326.196 129.595 326.653 130.555C327.11 131.514 329.923 131.134 330.023 132.05C330.121 132.967 330.824 136.572 333.403 136.609L334.718 129.673L334.72 129.671Z" fill="#FDAD9B"/>
<path d="M331.885 127.996C331.635 127.468 330.652 127.313 330.643 127.311L330.665 127.165C330.707 127.172 331.735 127.335 332.018 127.933L331.885 127.996Z" fill="#E9845C"/>
<path d="M331.9 129.814C331.376 129.114 330.409 128.977 330.4 128.975L330.421 128.827C330.463 128.833 331.459 128.975 332.02 129.723L331.902 129.812L331.9 129.814Z" fill="#E9845C"/>
<path d="M331.536 131.162C331.318 130.58 330.152 130.395 330.139 130.393L330.161 130.247C330.213 130.255 331.425 130.447 331.675 131.11L331.536 131.162Z" fill="#E9845C"/>
<path d="M79.6619 147.11C79.6619 147.11 79.5199 160.717 78.4239 184.722C77.5646 203.544 77.7421 220.985 76.0922 229.254C75.5028 232.21 53.6798 230.702 53.9117 227.447L59.0769 169.3L60.064 150.89L79.6595 147.108L79.6619 147.11Z" fill="#FFBA41"/>
<path d="M46.9574 117.253C46.9574 117.253 49.8833 109.022 60.306 109.396C70.7286 109.77 79.0706 123.476 81.0188 152.912C81.0188 152.912 63.5774 149.257 43.5842 157.987C43.5842 157.987 42.3793 129.252 46.9574 117.255V117.253Z" fill="#FF443C"/>
<path d="M39.6375 116.758L47.0207 121.483C47.0207 121.483 65.9984 123.381 71.0381 122.468C76.0754 121.554 73.4881 118.891 73.4881 118.891C73.4881 118.891 72.0678 111.276 62.9471 109.642C62.0901 109.488 61.2261 109.462 60.3053 109.396C58.7595 109.287 57.2114 109.335 55.694 109.498C46.6822 110.471 39.6375 116.758 39.6375 116.758Z" fill="#FF443C"/>
<path d="M39.5315 116.921C39.2759 117.665 41.2075 119.057 43.8445 120.03C46.4815 121.002 48.8298 121.189 49.0854 120.446C49.3411 119.703 47.4095 118.311 44.7724 117.338C42.1354 116.365 39.7872 116.178 39.5315 116.921Z" fill="#66192D"/>
<path d="M43.584 157.985C43.7663 159.488 52.2692 159.306 62.6824 157.987C73.0957 156.669 81.2009 154.413 81.0186 152.91C80.8363 151.406 72.4376 151.222 62.0244 152.54C51.6111 153.859 43.4018 156.479 43.584 157.982V157.985Z" fill="#66192D"/>
<path d="M67.708 155.937L48.3279 229.237C47.3976 232.227 29.0117 231.827 29.5869 228.652L44.6256 159.322C44.8032 158.525 45.3902 157.89 46.1596 157.668C50.3282 156.465 68.1175 152.981 67.708 155.935V155.937Z" fill="#FFBA41"/>
<path d="M56.639 198.528L56.2744 198.442L62.1924 173.22C63.3002 169.849 65.5727 167.046 68.5932 165.316L68.7802 165.64C65.8402 167.323 63.6292 170.053 62.5545 173.319L56.6413 198.528H56.639Z" fill="#020202"/>
<path d="M51.9543 156.354C51.9543 156.354 72.7358 152.384 79.4728 154.257L76.2416 159.045L64.2305 159.725L51.9543 156.354Z" fill="#FFBA41"/>
<path d="M63.7382 110.026C63.7382 110.026 61.3734 109.079 61.0018 107.763C60.6301 106.444 59.7519 106.851 59.2453 106.513C58.7388 106.174 60.1567 102.593 60.1567 102.593L65.0544 100.803L64.5478 107.088L63.7359 110.028L63.7382 110.026Z" fill="#66192D"/>
<path d="M53.4788 109.846C54.4611 109.623 55.4435 109.017 55.8625 108.045L57.1597 105.033L57.5385 104.153L59.766 98.9782L59.3801 104.342L59.1482 107.562L59.0819 108.468C59.0274 109.219 59.4535 109.257 60.1944 109.391C60.1944 109.391 61.1532 112.291 58.9919 112.291C56.13 112.291 53.4788 109.848 53.4788 109.848V109.846Z" fill="#FDAD9B"/>
<path d="M57.1526 104.943C57.1526 104.972 57.1549 105.003 57.1573 105.033C57.2851 106.761 59.1339 107.571 59.1339 107.571L59.1457 107.562L59.3777 104.342C58.812 104.134 58.0071 103.923 57.5361 104.155C57.2899 104.276 57.136 104.52 57.1526 104.946V104.943Z" fill="#66192D"/>
<path d="M60.0097 106.051C62.7931 106.051 65.0494 103.268 65.0494 99.8351C65.0494 96.402 62.7931 93.6189 60.0097 93.6189C57.2263 93.6189 54.97 96.402 54.97 99.8351C54.97 103.268 57.2263 106.051 60.0097 106.051Z" fill="#FDAD9B"/>
<path d="M62.7227 103.857C62.7227 103.857 61.0017 103.897 59.2808 103.291C59.2808 103.291 59.1388 104.988 61.0017 105.102C62.0859 105.168 62.7227 103.857 62.7227 103.857Z" fill="white"/>
<path d="M60.4974 99.8943C60.5306 99.8848 60.559 99.8611 60.5732 99.8256C60.5968 99.7665 60.5684 99.7002 60.5093 99.6765C60.4738 99.6623 59.7044 99.267 59.025 100.008C58.9824 100.055 58.9824 100.126 59.0298 100.169C59.0748 100.211 59.1387 100.2 59.1907 100.164C59.7163 99.8114 60.3933 99.8777 60.424 99.8872C60.4477 99.8966 60.4738 99.8966 60.4974 99.8919V99.8943Z" fill="#080435"/>
<path d="M59.3466 101.097C59.3371 101.369 59.491 101.596 59.6898 101.603C59.8887 101.61 60.0568 101.393 60.0639 101.12C60.0733 100.848 59.9195 100.621 59.7206 100.614C59.5218 100.607 59.3537 100.825 59.3466 101.097Z" fill="#080435"/>
<path d="M62.6088 101.312C62.5828 101.584 62.7225 101.821 62.9189 101.84C63.1154 101.859 63.2977 101.653 63.3237 101.381C63.3498 101.109 63.2101 100.872 63.0136 100.853C62.8171 100.834 62.6349 101.04 62.6088 101.312Z" fill="#080435"/>
<path d="M57.5644 95.8536C61.4205 96.7744 64.1546 100.228 64.2754 104.188C64.2825 104.418 64.2872 104.655 64.2872 104.899C64.2872 104.899 60.3624 105.074 60.9376 107.569C61.3756 109.465 63.9227 111.141 64.8032 111.141C66.1312 111.141 68.3564 106.634 67.6368 100.77C66.9195 94.9067 64.6446 90.6008 59.2617 90.4209C53.8763 90.241 54.596 93.832 54.596 93.832C54.596 93.832 55.5405 95.373 57.5644 95.8559V95.8536Z" fill="#66192D"/>
<path d="M58.3194 95.8654C58.3194 95.8654 58.2271 95.9245 58.0803 96.0382C57.5098 96.4785 56.1013 97.7449 55.8528 99.6339C55.5379 102.013 57.827 103.492 57.1997 105.332C56.5724 107.171 54.9106 105.107 53.5661 105.422C52.2192 105.737 51.232 105.107 51.1421 102.415C51.0521 99.7239 51.6794 93.4414 54.8657 93.4414L58.3217 95.8654H58.3194Z" fill="#66192D"/>
<path d="M55.0649 100.772C55.6354 101.317 56.4332 101.374 56.8474 100.898C57.2617 100.422 57.1339 99.5936 56.5634 99.0492C55.9929 98.5047 55.1951 98.4479 54.7809 98.9237C54.3666 99.3995 54.4945 100.228 55.0649 100.772Z" fill="#FDAD9B"/>
<path d="M65.1775 110.326H65.1728C65.1515 110.324 65.1373 110.305 65.142 110.284C66.2949 102.801 64.0058 98.8622 62.9666 97.5153C60.5757 94.4143 58.0287 94.8214 58.0026 94.8261C57.9813 94.8309 57.9624 94.8167 57.96 94.7954C57.9576 94.7741 57.9695 94.7551 57.9908 94.7528C58.0168 94.748 60.6089 94.3338 63.0258 97.4703C64.0697 98.8243 66.373 102.782 65.2154 110.296C65.213 110.315 65.1965 110.326 65.1775 110.326Z" fill="white"/>
<path d="M55.9666 105.452C55.9666 105.452 55.9548 105.452 55.95 105.448C54.4137 104.655 53.3817 103.251 52.9698 101.388C52.3874 98.7628 53.1473 96.0879 53.7344 95.3256C54.7546 94.0047 56.5608 94.4474 56.5797 94.4521C56.5987 94.4569 56.6129 94.4782 56.6058 94.4971C56.601 94.5161 56.5797 94.5279 56.5608 94.5232C56.5442 94.5184 54.783 94.0876 53.7935 95.3706C53.2302 96.1021 52.4727 98.8054 53.0432 101.371C53.4574 103.239 54.4469 104.588 55.9856 105.381C56.0045 105.391 56.0116 105.412 56.0021 105.431C55.995 105.443 55.9832 105.452 55.969 105.452H55.9666Z" fill="white"/>
<path d="M65.9016 103.147C65.8827 103.147 65.8661 103.13 65.8638 103.111C65.859 103.031 65.4116 95.0392 62.5355 93.8059C59.657 92.5726 57.51 94.1444 57.4887 94.161C57.4721 94.1728 57.4484 94.1705 57.4366 94.1539C57.4248 94.1373 57.4271 94.1137 57.4437 94.1018C57.465 94.0853 59.6475 92.4874 62.5663 93.7373C63.7948 94.2628 64.7346 96.0027 65.3619 98.9025C65.8282 101.059 65.9371 103.085 65.9395 103.107C65.9395 103.128 65.9253 103.144 65.904 103.147H65.9016Z" fill="white"/>
<path d="M64.5504 107.126C64.529 107.126 64.5125 107.109 64.5148 107.088C64.574 104.333 64.039 102.557 64.0343 102.541C64.0272 102.522 64.039 102.501 64.058 102.493C64.0769 102.486 64.0982 102.498 64.1053 102.517C64.1101 102.534 64.6474 104.321 64.5882 107.088C64.5882 107.109 64.5717 107.124 64.5504 107.124V107.126Z" fill="white"/>
<path d="M62.1807 119.416L51.99 120.271C50.6383 120.385 49.6181 121.542 49.6773 122.899L50.6312 145.162C50.6904 146.554 51.8669 147.636 53.2588 147.579L63.2507 147.174L62.1831 119.419L62.1807 119.416Z" fill="#4F1A44"/>
<path d="M85.9372 118.415L62.1778 119.416C61.1031 119.461 60.2651 120.366 60.3006 121.443L61.1221 145.287C61.1599 146.407 62.1281 147.266 63.2454 147.174L89.6537 144.958C90.7852 144.864 91.5995 143.829 91.4267 142.707L87.9564 120.079C87.8049 119.092 86.9338 118.375 85.9372 118.417V118.415Z" fill="#552748"/>
<path d="M73.2237 139.611L71.6187 139.322C71.1003 139.227 70.802 138.676 71.0103 138.193L77.2502 123.597C77.3804 123.289 77.6858 123.093 78.0196 123.1L78.7652 123.114C79.3286 123.123 79.7121 123.684 79.5227 124.212L74.1421 139.085C74.0072 139.462 73.619 139.684 73.2237 139.613V139.611Z" fill="#C8C1E1"/>
<path d="M69.7509 125.157C67.7459 125.597 66.0013 127.564 66.2735 129.598C66.5433 131.631 68.3187 132.864 70.3521 132.594C72.3879 132.325 74.3787 130.589 74.1065 128.556C73.8366 126.523 72.2033 124.619 69.7509 125.157ZM70.1509 130.518C69.3153 130.63 68.7993 129.671 68.688 128.835C68.5768 128 69.2017 127.436 70.0373 127.325C70.8729 127.214 71.6423 127.801 71.7535 128.637C71.8648 129.472 70.9865 130.405 70.1509 130.516V130.518Z" fill="#C8C1E1"/>
<path d="M80.3344 130.786C78.3294 131.226 76.5848 133.193 76.857 135.227C77.1268 137.26 78.9022 138.494 80.9356 138.224C82.9714 137.954 84.9622 136.219 84.69 134.185C84.4201 132.152 82.7868 130.249 80.3344 130.786ZM80.7344 136.148C79.8988 136.259 79.3828 135.3 79.2715 134.465C79.1602 133.629 79.7852 133.066 80.6208 132.954C81.4564 132.843 82.2257 133.43 82.337 134.266C82.4483 135.101 81.57 136.034 80.7344 136.145V136.148Z" fill="#C8C1E1"/>
<path d="M55.0676 135.492C55.0676 135.492 56.3814 131.517 58.6302 130.542C60.879 129.567 64.489 130.026 63.2226 130.926C61.9561 131.825 60.0221 132.528 60.0221 132.528C60.0221 132.528 64.2262 131.222 64.1055 132.339C63.9848 133.454 60.318 134.555 60.318 134.555C60.318 134.555 65.4453 133.399 64.9908 134.417C64.5363 135.435 60.6352 136.285 60.6352 136.285C60.6352 136.285 65.4477 135.4 64.8938 136.569C64.3375 137.738 60.9122 137.274 60.7915 138.389C60.6707 139.504 59.8162 143.895 56.6726 143.94L55.07 135.494L55.0676 135.492Z" fill="#FDAD9B"/>
<path d="M58.5208 133.451L58.3574 133.373C58.703 132.644 59.9529 132.445 60.0073 132.438L60.0358 132.618C60.0239 132.618 58.8285 132.812 58.5231 133.451H58.5208Z" fill="#E9845C"/>
<path d="M58.4996 135.665L58.3552 135.556C59.037 134.642 60.2513 134.472 60.3034 134.465L60.3271 134.645C60.3271 134.645 59.1364 134.815 58.4996 135.665Z" fill="#E9845C"/>
<path d="M58.9422 137.308L58.7717 137.244C59.0747 136.436 60.5518 136.202 60.6158 136.193L60.6418 136.372C60.6276 136.372 59.2073 136.6 58.9398 137.308H58.9422Z" fill="#E9845C"/>
<path d="M92.3645 126.435C92.3645 126.435 92.8521 123.99 90.6175 123.559C87.7674 123.012 83.6935 125.06 85.4949 125.431C87.0904 125.76 89.4718 125.687 89.4718 125.687C89.4718 125.687 83.4236 125.962 83.9113 127.197C84.3966 128.433 89.5949 128.128 89.5949 128.128C89.5949 128.128 83.7337 128.951 84.5694 129.969C85.4073 130.987 90.1275 130.739 90.1275 130.739C90.1275 130.739 84.3539 131.233 85.3553 132.396C86.3566 133.556 89.2895 132.696 90.6151 132.613C91.8674 132.538 92.2248 131.704 92.0638 130.502C92.0638 130.502 92.6012 129.212 92.2982 128.452C92.1822 128.161 92.4473 127.848 92.4592 127.628C92.4828 127.207 92.3668 126.438 92.3668 126.438L92.3645 126.435Z" fill="#FDAD9B"/>
<path d="M57.6425 142.638L57.7301 137.244C57.7419 136.507 57.1738 135.887 56.44 135.835C52.6998 135.568 50.0817 134.408 48.6472 132.379C46.6564 129.562 46.8647 125.188 47.421 122.153C47.7051 120.6 47.1914 119.561 45.3166 118.567C45.3166 118.567 43.7022 117.679 41.7138 117.34C40.916 117.205 40.1254 117.525 39.9194 118.306C39.5975 119.53 39.1809 121.433 38.982 123.673C38.511 128.994 39.5359 133.622 41.9505 137.057C44.9118 141.273 49.6888 143.607 56.1583 144.002C56.9536 144.052 57.6307 143.431 57.6425 142.636V142.638Z" fill="#FDAD9B"/>
<g opacity="0.5">
<path d="M43.8918 135.648C43.3616 135.648 42.7532 135.336 42.3035 134.777C41.9886 134.386 41.7945 133.932 41.7614 133.499C41.7235 133.04 41.8655 132.656 42.1614 132.417C42.4573 132.18 42.8621 132.121 43.3024 132.256C43.719 132.381 44.1215 132.668 44.4363 133.058C45.1038 133.887 45.1654 134.945 44.5783 135.419C44.3866 135.572 44.1475 135.646 43.8918 135.646V135.648ZM42.8527 132.55C42.6727 132.55 42.5118 132.602 42.3887 132.701C42.1898 132.862 42.0952 133.134 42.1212 133.47C42.1496 133.833 42.3153 134.216 42.5852 134.552C43.1178 135.213 43.9274 135.482 44.3511 135.139C44.7772 134.796 44.6872 133.949 44.1546 133.288C43.8847 132.952 43.5439 132.71 43.1983 132.604C43.0775 132.566 42.9615 132.55 42.855 132.55H42.8527Z" fill="#EC865C"/>
</g>
<path d="M216.537 149.019L215.923 154.542L209.883 208.907H144.077L143.33 202.644L135.943 140.706L143.33 141.468L144.692 141.608L146.084 141.753L154.933 142.666L163.662 143.566L165.022 143.706L166.416 143.848L175.262 144.762L183.991 145.661L185.353 145.803L186.745 145.947L195.593 146.858L204.321 147.759L205.683 147.899L207.077 148.043L215.923 148.956L216.537 149.019Z" fill="#553E93"/>
<path d="M154.933 142.666V208.907H146.084V141.753L154.933 142.666Z" fill="#786AB5"/>
<path d="M144.692 141.608V208.907H144.077L143.33 202.644V141.468L144.692 141.608Z" fill="#786AB5"/>
<path d="M175.263 144.762V208.907H166.416V143.848L175.263 144.762Z" fill="#786AB5"/>
<path d="M163.662 143.566V208.907H165.021V143.706L163.662 143.566Z" fill="#786AB5"/>
<path d="M195.593 146.858V208.907H186.745V145.947L195.593 146.858Z" fill="#786AB5"/>
<path d="M185.353 145.803V208.907H183.99V145.661L185.353 145.803Z" fill="#786AB5"/>
<path d="M215.923 148.956V154.543L209.882 208.907H207.077V148.043L215.923 148.956Z" fill="#786AB5"/>
<path d="M205.682 147.899V208.907H204.321V147.759L205.682 147.899Z" fill="#786AB5"/>
<path d="M139.768 172.777C140.565 172.263 213.557 175.84 213.557 175.84L213.125 179.737L140.939 182.592L139.769 172.777H139.768Z" fill="#FF8548"/>
<path d="M131.973 136.492L132.808 142.105C132.913 142.813 133.484 143.36 134.198 143.435L217.639 152.175C218.567 152.272 219.374 151.546 219.374 150.613V140.391C219.374 139.554 218.716 138.864 217.881 138.824L133.605 134.693C132.615 134.644 131.829 135.512 131.975 136.492H131.973Z" fill="#FF443C"/>
<path d="M173.457 136.646V208.907H179.013L183.634 137.145L173.457 136.646Z" fill="#FF8548"/>
<path d="M178.546 136.895C178.546 136.895 179.127 126.059 174.885 117.223C168.971 104.901 158.97 100.288 154.429 102.558C145.803 106.872 147.282 107.611 137.792 109.705C128.303 111.799 132.636 122.596 139.024 124.492C154.799 129.175 173.458 136.645 173.458 136.645L178.546 136.894V136.895Z" fill="#FF8548"/>
<path d="M151.224 109.476C149.587 109.476 147.982 109.328 146.461 109.188C145.66 109.115 144.903 109.044 144.164 108.997C141.825 108.847 139.388 109.436 139.363 109.443C139.313 109.456 139.263 109.425 139.251 109.375C139.238 109.325 139.269 109.275 139.319 109.263C139.343 109.257 141.805 108.661 144.176 108.812C144.917 108.859 145.675 108.93 146.478 109.004C150.097 109.338 154.2 109.716 158.027 108.019C158.074 107.999 158.128 108.019 158.149 108.067C158.17 108.114 158.149 108.168 158.102 108.189C155.848 109.189 153.507 109.478 151.224 109.478V109.476Z" fill="#66192D"/>
<path d="M173.457 136.739C173.434 136.739 173.409 136.729 173.391 136.711C173.337 136.656 167.895 131.038 161.056 125.334C154.751 120.076 145.938 113.668 139.758 113.003C137.03 112.709 135.158 113.284 134.195 114.715C133.323 116.008 133.093 118.524 134.542 121.227C134.565 121.271 134.548 121.328 134.504 121.351C134.46 121.375 134.403 121.358 134.379 121.314C133.822 120.274 133.456 119.082 133.347 117.955C133.219 116.632 133.46 115.476 134.041 114.612C135.046 113.12 136.976 112.517 139.777 112.82C146.005 113.491 154.851 119.919 161.175 125.194C168.021 130.903 173.468 136.527 173.523 136.584C173.559 136.62 173.557 136.679 173.52 136.714C173.502 136.732 173.478 136.74 173.456 136.74L173.457 136.739Z" fill="#66192D"/>
<path d="M175.531 136.896C175.531 136.896 178.581 118.479 189.056 117.975C189.056 117.975 192.876 117.223 193.892 121.106C194.908 124.987 198.606 122.678 200.177 126.743C201.749 130.81 199.899 134.507 192.043 134.6C184.186 134.693 181.862 137.146 181.862 137.146L175.53 136.897L175.531 136.896Z" fill="#FF8548"/>
<path d="M179.845 136.988C179.835 136.988 179.826 136.987 179.816 136.983C179.767 136.966 179.741 136.914 179.758 136.865C179.77 136.826 181.144 132.955 187.352 129.955C189.856 128.746 192.571 127.881 194.801 127.583C197.252 127.255 198.928 127.64 199.518 128.667C199.901 129.333 199.936 130.069 199.617 130.796C199.024 132.156 197.272 133.287 194.93 133.825C194.88 133.836 194.831 133.806 194.819 133.756C194.808 133.706 194.839 133.656 194.889 133.645C197.173 133.121 198.878 132.029 199.448 130.723C199.742 130.051 199.71 129.372 199.358 128.76C198.806 127.802 197.197 127.449 194.825 127.766C192.613 128.063 189.918 128.921 187.433 130.121C181.299 133.084 179.945 136.886 179.932 136.925C179.92 136.963 179.884 136.987 179.845 136.987V136.988Z" fill="#66192D"/>
<path d="M196.029 123.78C191.725 123.78 189.024 121.444 188.996 121.421C188.957 121.387 188.955 121.329 188.988 121.29C189.021 121.252 189.079 121.249 189.118 121.282C189.146 121.307 191.924 123.705 196.329 123.591C196.375 123.591 196.422 123.63 196.423 123.681C196.423 123.733 196.384 123.774 196.333 123.776C196.23 123.778 196.129 123.78 196.029 123.78Z" fill="#66192D"/>
<path d="M175.548 136.855C175.548 136.855 175.541 136.855 175.537 136.855C175.486 136.85 175.45 136.804 175.455 136.753C175.462 136.696 176.114 131.07 177.982 128.286C178.011 128.243 178.068 128.232 178.111 128.261C178.154 128.29 178.165 128.347 178.136 128.39C176.292 131.136 175.645 136.718 175.64 136.774C175.634 136.821 175.594 136.855 175.548 136.855Z" fill="#66192D"/>
<path d="M183.635 137.238C183.635 137.238 183.632 137.238 183.631 137.238L173.157 136.804C173.106 136.801 173.067 136.758 173.068 136.708C173.07 136.657 173.11 136.617 173.164 136.62L183.637 137.054C183.689 137.056 183.728 137.099 183.726 137.149C183.725 137.199 183.683 137.238 183.633 137.238H183.635Z" fill="#66192D"/>
<path d="M232.291 167.158H248.445C250.586 167.158 252.346 168.897 252.434 171.099L253.873 207.301C253.963 209.565 252.256 211.476 250.057 211.574L234.276 212.274L232.291 167.156V167.158Z" fill="#FF443C"/>
<path d="M194.76 168.768L232.29 167.158C233.99 167.085 235.428 168.436 235.512 170.186L237.369 208.932C237.457 210.751 236.046 212.276 234.275 212.276H192.413C190.619 212.276 189.202 210.713 189.323 208.871L191.798 171.735C191.906 170.114 193.182 168.836 194.758 168.768H194.76Z" fill="#FF8548"/>
<path d="M207.519 201.63L205.032 200.943C204.228 200.72 203.834 199.786 204.223 199.03L215.974 176.227C216.221 175.747 216.726 175.471 217.25 175.525L218.421 175.648C219.304 175.74 219.838 176.702 219.466 177.532L209.031 200.899C208.767 201.491 208.127 201.798 207.517 201.63H207.519Z" fill="#C8C1E1"/>
<path d="M203.96 177.735C200.749 178.175 197.742 181.126 197.899 184.458C198.056 187.79 200.685 190.028 203.922 189.867C207.16 189.705 210.524 187.166 210.367 183.834C210.21 180.502 207.892 177.196 203.96 177.733V177.735ZM203.881 186.477C202.55 186.543 201.867 184.921 201.801 183.55C201.737 182.18 202.795 181.354 204.126 181.288C205.457 181.222 206.587 182.277 206.653 183.648C206.718 185.018 205.212 186.409 203.881 186.477Z" fill="#C8C1E1"/>
<path d="M219.877 188.296C216.665 188.736 213.658 191.687 213.815 195.019C213.972 198.351 216.601 200.59 219.838 200.43C223.076 200.268 226.44 197.729 226.283 194.397C226.126 191.065 223.808 187.759 219.877 188.296ZM219.799 197.038C218.468 197.105 217.785 195.482 217.719 194.112C217.655 192.741 218.713 191.915 220.044 191.849C221.375 191.783 222.505 192.839 222.57 194.209C222.634 195.579 221.128 196.971 219.797 197.038H219.799Z" fill="#C8C1E1"/>
<path d="M156.347 31.7107C156.347 31.7107 158.021 30.7266 158.784 27.3118C158.784 27.3118 157.737 25.854 156.92 25.4286C156.103 25.0003 154.708 24.3253 154.478 24.8046C154.248 25.2839 153.622 27.0027 152.581 28.2137C151.54 29.4248 153.452 29.3397 154.217 30.511C154.983 31.6824 155.669 32.3234 156.347 31.7136V31.7107Z" fill="#FF8548"/>
<path d="M129.883 54.2273C129.883 54.2273 130.413 52.361 128.612 49.3603C128.612 49.3603 126.848 49.0285 125.963 49.2809C125.078 49.5334 123.601 50.0098 123.765 50.5147C123.93 51.0195 124.662 52.6986 124.744 54.2925C124.826 55.8864 126.151 54.5052 127.515 54.8257C128.879 55.1462 129.818 55.1348 129.886 54.2273H129.883Z" fill="#786AB5"/>
<path d="M41.9436 31.7192C41.9436 31.7192 43.495 32.7232 46.7282 31.9177C46.7282 31.9177 47.5224 30.406 47.5394 29.5296C47.5564 28.6533 47.5366 27.1756 47.0317 27.1841C46.5269 27.1926 44.794 27.3912 43.322 27.0225C41.85 26.6537 42.7349 28.2449 42.0627 29.3935C41.3905 30.545 41.1381 31.4015 41.9464 31.7192H41.9436Z" fill="#FFBA41"/>
<path d="M332.256 44.1616C332.256 44.1616 336.723 46.5809 340.671 43.1944C340.671 43.1944 338.848 40.4178 337.679 40.2363C337.679 40.2363 333.791 43.0073 328.748 39.4195C328.748 39.4195 330.725 43.1718 332.256 44.1644V44.1616Z" fill="#D6654E"/>
<path d="M322.755 32.0681C322.755 32.0681 322.831 39.635 332.256 44.1616C332.256 44.1616 326.831 38.0978 328.413 33.5684C328.413 33.5684 325.639 31.4242 322.755 32.0681Z" fill="#FF8548"/>
<path d="M347.073 66.2244C347.073 66.2244 349.172 67.5829 353.545 66.4938C353.545 66.4938 354.62 64.4461 354.64 63.2605C354.663 62.075 354.634 60.0783 353.951 60.0868C353.267 60.0982 350.925 60.3676 348.931 59.8656C346.937 59.3664 348.137 61.5191 347.226 63.0762C346.319 64.6333 345.976 65.7961 347.07 66.2215L347.073 66.2244Z" fill="#FFBA41"/>
<path d="M308.611 14.1547C308.611 14.1547 310.474 13.803 312.304 10.9186C312.304 10.9186 311.822 9.23385 311.215 8.57302C310.608 7.90935 309.547 6.82875 309.178 7.19179C308.81 7.55482 307.664 8.92754 306.308 9.69615C304.952 10.4648 306.736 11.0178 307.051 12.348C307.366 13.6782 307.786 14.495 308.611 14.1547Z" fill="#786AB5"/>
<path d="M250.968 98.3925C250.852 98.3925 250.727 98.3755 250.594 98.3386C245.097 97.5189 240.429 95.8144 237.091 93.4036C234.226 91.336 232.448 88.8345 232.076 86.3642C231.711 83.9194 232.822 81.8291 235.052 80.7684C236.121 80.2607 237.099 80.0933 237.964 80.2692C238.061 80.289 238.12 80.3826 238.101 80.4762C238.081 80.5727 237.987 80.6322 237.893 80.6124C237.105 80.4507 236.2 80.6095 235.202 81.0832C233.12 82.073 232.082 84.0272 232.422 86.3103C233.106 90.8766 239.008 96.2597 250.654 97.9898C250.662 97.9898 250.671 97.9926 250.676 97.9954C251.204 98.1514 251.538 97.8621 251.663 97.57C251.797 97.2637 251.757 96.8269 251.36 96.5972C251.275 96.549 251.246 96.4412 251.295 96.3561C251.343 96.271 251.451 96.2426 251.536 96.2909C252.091 96.6114 252.182 97.2467 251.987 97.7061C251.828 98.0748 251.465 98.3868 250.966 98.3868L250.968 98.3925Z" fill="#66192D"/>
<path d="M246.113 93.3186C246.077 93.3186 246.037 93.3072 246.006 93.2817C243.422 91.2793 241.973 89.1295 241.57 86.7045C241.334 85.2921 240.997 84.0981 240.569 83.1621C240.529 83.0742 240.569 82.9693 240.657 82.9296C240.744 82.8899 240.849 82.9296 240.889 83.0175C241.332 83.9846 241.678 85.207 241.919 86.6507C242.307 88.982 243.714 91.0609 246.224 93.0066C246.301 93.0661 246.315 93.1768 246.255 93.2533C246.221 93.2987 246.167 93.3214 246.116 93.3214L246.113 93.3186Z" fill="#66192D"/>
<path d="M19.0352 92.3288C19.0352 92.3288 21.4942 93.659 23.6667 91.7956C23.6667 91.7956 22.6627 90.2669 22.0189 90.1676C22.0189 90.1676 19.8804 91.6935 17.1038 89.7166C17.1038 89.7166 18.19 91.7814 19.0352 92.3288Z" fill="#D6654E"/>
<path d="M13.8081 85.6722C13.8081 85.6722 13.8506 89.8358 19.0381 92.3288C19.0381 92.3288 16.0515 88.9906 16.9223 86.4976C16.9223 86.4976 15.3964 85.3177 13.8081 85.6722Z" fill="#FF8548"/>
<path d="M119.354 19.0868C119.354 19.0868 122.276 15.0736 119.505 10.8137C119.505 10.8137 116.581 12.2204 116.252 13.3294C116.252 13.3294 118.433 17.4532 114.306 21.872C114.306 21.872 118.194 20.4426 119.351 19.0868H119.354Z" fill="#D6654E"/>
<path d="M106.416 26.7247C106.416 26.7247 113.753 27.6295 119.354 19.0869C119.354 19.0869 112.78 23.5567 108.6 21.4381C108.6 21.4381 106.166 23.846 106.416 26.7247Z" fill="#FF8548"/>
<path d="M34.9732 58.1196C33.3679 58.1196 31.8186 57.9236 30.3252 57.5316C28.8506 57.121 27.6466 56.5983 26.7132 55.9636L28.5332 51.8756C29.4106 52.4356 30.4186 52.9023 31.5572 53.2756C32.7146 53.6303 33.8626 53.8076 35.0012 53.8076C35.7666 53.8076 36.3826 53.7423 36.8492 53.6116C37.3159 53.4623 37.6519 53.2756 37.8572 53.0516C38.0812 52.809 38.1932 52.529 38.1932 52.2116C38.1932 51.7636 37.9879 51.409 37.5772 51.1476C37.1666 50.8863 36.6346 50.6716 35.9812 50.5036C35.3279 50.3356 34.5999 50.1676 33.7972 49.9996C33.0132 49.8316 32.2199 49.617 31.4172 49.3556C30.6332 49.0943 29.9146 48.7583 29.2612 48.3476C28.6079 47.9183 28.0759 47.3676 27.6652 46.6956C27.2546 46.005 27.0492 45.137 27.0492 44.0916C27.0492 42.9156 27.3666 41.8516 28.0012 40.8996C28.6546 39.9476 29.6252 39.1823 30.9132 38.6036C32.2012 38.025 33.8066 37.7356 35.7292 37.7356C37.0172 37.7356 38.2772 37.885 39.5092 38.1836C40.7599 38.4636 41.8706 38.8836 42.8412 39.4436L41.1332 43.5596C40.1999 43.0556 39.2759 42.6823 38.3612 42.4396C37.4466 42.1783 36.5599 42.0476 35.7012 42.0476C34.9359 42.0476 34.3199 42.1316 33.8532 42.2996C33.3866 42.449 33.0506 42.6543 32.8452 42.9156C32.6399 43.177 32.5372 43.4756 32.5372 43.8116C32.5372 44.241 32.7332 44.5863 33.1252 44.8476C33.5359 45.0903 34.0679 45.2956 34.7212 45.4636C35.3932 45.613 36.1212 45.7716 36.9052 45.9396C37.7079 46.1076 38.5012 46.3223 39.2852 46.5836C40.0879 46.8263 40.8159 47.1623 41.4692 47.5916C42.1226 48.0023 42.6452 48.553 43.0372 49.2436C43.4479 49.9156 43.6532 50.765 43.6532 51.7916C43.6532 52.9303 43.3266 53.985 42.6732 54.9556C42.0386 55.9076 41.0772 56.673 39.7892 57.2516C38.5199 57.8303 36.9146 58.1196 34.9732 58.1196ZM53.7182 57.9796C52.0382 57.9796 50.5355 57.6436 49.2102 56.9716C47.9035 56.2996 46.8768 55.3756 46.1302 54.1996C45.3835 53.005 45.0102 51.6423 45.0102 50.1116C45.0102 48.581 45.3835 47.2276 46.1302 46.0516C46.8768 44.8756 47.9035 43.961 49.2102 43.3076C50.5355 42.6356 52.0382 42.2996 53.7182 42.2996C55.4355 42.2996 56.9195 42.6636 58.1702 43.3916C59.4208 44.1196 60.3075 45.1463 60.8302 46.4716L56.7142 48.5716C56.3595 47.8623 55.9208 47.349 55.3982 47.0316C54.8755 46.6956 54.3062 46.5276 53.6902 46.5276C53.0742 46.5276 52.5142 46.6676 52.0102 46.9476C51.5062 47.2276 51.1048 47.6383 50.8062 48.1796C50.5262 48.7023 50.3862 49.3463 50.3862 50.1116C50.3862 50.8956 50.5262 51.5583 50.8062 52.0996C51.1048 52.641 51.5062 53.0516 52.0102 53.3316C52.5142 53.6116 53.0742 53.7516 53.6902 53.7516C54.3062 53.7516 54.8755 53.593 55.3982 53.2756C55.9208 52.9396 56.3595 52.417 56.7142 51.7076L60.8302 53.8076C60.3075 55.133 59.4208 56.1596 58.1702 56.8876C56.9195 57.6156 55.4355 57.9796 53.7182 57.9796ZM70.2852 57.9796C68.6238 57.9796 67.1492 57.6436 65.8612 56.9716C64.5732 56.2996 63.5558 55.3756 62.8092 54.1996C62.0812 53.005 61.7172 51.6423 61.7172 50.1116C61.7172 48.581 62.0812 47.2276 62.8092 46.0516C63.5558 44.8756 64.5732 43.961 65.8612 43.3076C67.1492 42.6356 68.6238 42.2996 70.2852 42.2996C71.9465 42.2996 73.4212 42.6356 74.7092 43.3076C76.0158 43.961 77.0332 44.8756 77.7612 46.0516C78.4892 47.2276 78.8532 48.581 78.8532 50.1116C78.8532 51.6423 78.4892 53.005 77.7612 54.1996C77.0332 55.3756 76.0158 56.2996 74.7092 56.9716C73.4212 57.6436 71.9465 57.9796 70.2852 57.9796ZM70.2852 53.7516C70.9012 53.7516 71.4425 53.6116 71.9092 53.3316C72.3945 53.0516 72.7772 52.641 73.0572 52.0996C73.3372 51.5396 73.4772 50.877 73.4772 50.1116C73.4772 49.3463 73.3372 48.7023 73.0572 48.1796C72.7772 47.6383 72.3945 47.2276 71.9092 46.9476C71.4425 46.6676 70.9012 46.5276 70.2852 46.5276C69.6878 46.5276 69.1465 46.6676 68.6612 46.9476C68.1945 47.2276 67.8118 47.6383 67.5132 48.1796C67.2332 48.7023 67.0932 49.3463 67.0932 50.1116C67.0932 50.877 67.2332 51.5396 67.5132 52.0996C67.8118 52.641 68.1945 53.0516 68.6612 53.3316C69.1465 53.6116 69.6878 53.7516 70.2852 53.7516ZM90.8656 57.9796C89.5776 57.9796 88.4763 57.6996 87.5616 57.1396C86.647 56.561 85.947 55.7023 85.4616 54.5636C84.995 53.4063 84.7616 51.9316 84.7616 50.1396C84.7616 48.329 84.9856 46.8543 85.4336 45.7156C85.8816 44.5583 86.5536 43.6996 87.4496 43.1396C88.3643 42.5796 89.503 42.2996 90.8656 42.2996C92.247 42.2996 93.4976 42.6263 94.6176 43.2796C95.7563 43.9143 96.6523 44.8196 97.3056 45.9956C97.9776 47.153 98.3136 48.5343 98.3136 50.1396C98.3136 51.745 97.9776 53.1356 97.3056 54.3116C96.6523 55.4876 95.7563 56.393 94.6176 57.0276C93.4976 57.6623 92.247 57.9796 90.8656 57.9796ZM81.3176 63.1596V42.5516H86.3856V45.1276L86.3576 50.1396L86.6376 55.1796V63.1596H81.3176ZM89.7456 53.7516C90.343 53.7516 90.875 53.6116 91.3416 53.3316C91.827 53.0516 92.2096 52.641 92.4896 52.0996C92.7883 51.5583 92.9376 50.905 92.9376 50.1396C92.9376 49.3743 92.7883 48.721 92.4896 48.1796C92.2096 47.6383 91.827 47.2276 91.3416 46.9476C90.875 46.6676 90.343 46.5276 89.7456 46.5276C89.1483 46.5276 88.607 46.6676 88.1216 46.9476C87.655 47.2276 87.2723 47.6383 86.9736 48.1796C86.6936 48.721 86.5536 49.3743 86.5536 50.1396C86.5536 50.905 86.6936 51.5583 86.9736 52.0996C87.2723 52.641 87.655 53.0516 88.1216 53.3316C88.607 53.6116 89.1483 53.7516 89.7456 53.7516ZM100.786 57.7276V42.5516H105.854V46.9756L105.098 45.7156C105.546 44.577 106.274 43.7276 107.282 43.1676C108.29 42.589 109.513 42.2996 110.95 42.2996V47.0876C110.708 47.0503 110.493 47.0316 110.306 47.0316C110.138 47.013 109.952 47.0036 109.746 47.0036C108.664 47.0036 107.786 47.3023 107.114 47.8996C106.442 48.4783 106.106 49.4303 106.106 50.7556V57.7276H100.786ZM113.146 57.7276V42.5516H118.466V57.7276H113.146ZM115.806 40.8716C114.835 40.8716 114.051 40.601 113.454 40.0596C112.856 39.5183 112.558 38.8463 112.558 38.0436C112.558 37.241 112.856 36.569 113.454 36.0276C114.051 35.4863 114.835 35.2156 115.806 35.2156C116.776 35.2156 117.56 35.477 118.158 35.9996C118.755 36.5036 119.054 37.157 119.054 37.9596C119.054 38.7996 118.755 39.4996 118.158 40.0596C117.579 40.601 116.795 40.8716 115.806 40.8716ZM130.072 57.7276V36.9516H135.392V57.7276H130.072ZM146.801 57.9796C145.009 57.9796 143.441 57.6436 142.097 56.9716C140.772 56.281 139.736 55.3476 138.989 54.1716C138.261 52.977 137.897 51.6236 137.897 50.1116C137.897 48.5996 138.252 47.2556 138.961 46.0796C139.689 44.885 140.688 43.961 141.957 43.3076C143.226 42.6356 144.654 42.2996 146.241 42.2996C147.734 42.2996 149.097 42.6076 150.329 43.2236C151.561 43.821 152.541 44.7076 153.269 45.8836C153.997 47.0596 154.361 48.4876 154.361 50.1676C154.361 50.3543 154.352 50.569 154.333 50.8116C154.314 51.0543 154.296 51.2783 154.277 51.4836H142.265V48.6836H151.449L149.433 49.4676C149.452 48.777 149.321 48.1796 149.041 47.6756C148.78 47.1716 148.406 46.7796 147.921 46.4996C147.454 46.2196 146.904 46.0796 146.269 46.0796C145.634 46.0796 145.074 46.2196 144.589 46.4996C144.122 46.7796 143.758 47.181 143.497 47.7036C143.236 48.2076 143.105 48.805 143.105 49.4956V50.3076C143.105 51.0543 143.254 51.6983 143.553 52.2396C143.87 52.781 144.318 53.201 144.897 53.4996C145.476 53.7796 146.166 53.9196 146.969 53.9196C147.716 53.9196 148.35 53.817 148.873 53.6116C149.414 53.3876 149.946 53.0516 150.469 52.6036L153.269 55.5156C152.541 56.3183 151.645 56.9343 150.581 57.3636C149.517 57.7743 148.257 57.9796 146.801 57.9796ZM28.0852 85.7276V66.1276H37.0452C38.8372 66.1276 40.3772 66.417 41.6652 66.9956C42.9719 67.5743 43.9799 68.4143 44.6892 69.5156C45.3986 70.5983 45.7532 71.8863 45.7532 73.3796C45.7532 74.8543 45.3986 76.133 44.6892 77.2156C43.9799 78.2983 42.9719 79.1383 41.6652 79.7356C40.3772 80.3143 38.8372 80.6036 37.0452 80.6036H31.1652L33.6292 78.1956V85.7276H28.0852ZM33.6292 78.7836L31.1652 76.2356H36.7092C37.8666 76.2356 38.7252 75.9836 39.2852 75.4796C39.8639 74.9756 40.1532 74.2756 40.1532 73.3796C40.1532 72.465 39.8639 71.7556 39.2852 71.2516C38.7252 70.7476 37.8666 70.4956 36.7092 70.4956H31.1652L33.6292 67.9476V78.7836ZM48.4563 85.7276V66.1276H57.4163C59.2083 66.1276 60.7483 66.417 62.0363 66.9956C63.343 67.5743 64.351 68.4143 65.0603 69.5156C65.7697 70.5983 66.1243 71.8863 66.1243 73.3796C66.1243 74.8543 65.7697 76.133 65.0603 77.2156C64.351 78.2796 63.343 79.101 62.0363 79.6796C60.7483 80.2396 59.2083 80.5196 57.4163 80.5196H51.5363L54.0003 78.1956V85.7276H48.4563ZM60.5803 85.7276L55.7083 78.5876H61.6163L66.5163 85.7276H60.5803ZM54.0003 78.7836L51.5363 76.2356H57.0803C58.2377 76.2356 59.0963 75.9836 59.6563 75.4796C60.235 74.9756 60.5243 74.2756 60.5243 73.3796C60.5243 72.465 60.235 71.7556 59.6563 71.2516C59.0963 70.7476 58.2377 70.4956 57.0803 70.4956H51.5363L54.0003 67.9476V78.7836ZM79.0669 86.1196C77.4989 86.1196 76.0522 85.8676 74.7269 85.3636C73.4016 84.8596 72.2442 84.1503 71.2549 83.2356C70.2842 82.3023 69.5282 81.2196 68.9869 79.9876C68.4456 78.7556 68.1749 77.4023 68.1749 75.9276C68.1749 74.453 68.4456 73.0996 68.9869 71.8676C69.5282 70.6356 70.2842 69.5623 71.2549 68.6476C72.2442 67.7143 73.4016 66.9956 74.7269 66.4916C76.0522 65.9876 77.4989 65.7356 79.0669 65.7356C80.6536 65.7356 82.1002 65.9876 83.4069 66.4916C84.7322 66.9956 85.8802 67.7143 86.8509 68.6476C87.8216 69.5623 88.5776 70.6356 89.1189 71.8676C89.6789 73.0996 89.9589 74.453 89.9589 75.9276C89.9589 77.4023 89.6789 78.765 89.1189 80.0156C88.5776 81.2476 87.8216 82.321 86.8509 83.2356C85.8802 84.1503 84.7322 84.8596 83.4069 85.3636C82.1002 85.8676 80.6536 86.1196 79.0669 86.1196ZM79.0669 81.5276C79.8136 81.5276 80.5042 81.397 81.1389 81.1356C81.7922 80.8743 82.3522 80.501 82.8189 80.0156C83.3042 79.5116 83.6776 78.9143 83.9389 78.2236C84.2189 77.533 84.3589 76.7676 84.3589 75.9276C84.3589 75.069 84.2189 74.3036 83.9389 73.6316C83.6776 72.941 83.3042 72.353 82.8189 71.8676C82.3522 71.3636 81.7922 70.981 81.1389 70.7196C80.5042 70.4583 79.8136 70.3276 79.0669 70.3276C78.3202 70.3276 77.6202 70.4583 76.9669 70.7196C76.3322 70.981 75.7722 71.3636 75.2869 71.8676C74.8202 72.353 74.4469 72.941 74.1669 73.6316C73.9056 74.3036 73.7749 75.069 73.7749 75.9276C73.7749 76.7676 73.9056 77.533 74.1669 78.2236C74.4469 78.9143 74.8202 79.5116 75.2869 80.0156C75.7722 80.501 76.3322 80.8743 76.9669 81.1356C77.6202 81.397 78.3202 81.5276 79.0669 81.5276ZM92.8626 85.7276V66.1276H97.4266L105.547 79.4556H103.139L111.035 66.1276H115.599L115.655 85.7276H110.559L110.503 73.8836H111.371L105.463 83.7956H102.999L96.9226 73.8836H97.9866V85.7276H92.8626ZM129.461 86.1196C127.893 86.1196 126.447 85.8676 125.121 85.3636C123.796 84.8596 122.639 84.1503 121.649 83.2356C120.679 82.3023 119.923 81.2196 119.381 79.9876C118.84 78.7556 118.569 77.4023 118.569 75.9276C118.569 74.453 118.84 73.0996 119.381 71.8676C119.923 70.6356 120.679 69.5623 121.649 68.6476C122.639 67.7143 123.796 66.9956 125.121 66.4916C126.447 65.9876 127.893 65.7356 129.461 65.7356C131.048 65.7356 132.495 65.9876 133.801 66.4916C135.127 66.9956 136.275 67.7143 137.245 68.6476C138.216 69.5623 138.972 70.6356 139.513 71.8676C140.073 73.0996 140.353 74.453 140.353 75.9276C140.353 77.4023 140.073 78.765 139.513 80.0156C138.972 81.2476 138.216 82.321 137.245 83.2356C136.275 84.1503 135.127 84.8596 133.801 85.3636C132.495 85.8676 131.048 86.1196 129.461 86.1196ZM129.461 81.5276C130.208 81.5276 130.899 81.397 131.533 81.1356C132.187 80.8743 132.747 80.501 133.213 80.0156C133.699 79.5116 134.072 78.9143 134.333 78.2236C134.613 77.533 134.753 76.7676 134.753 75.9276C134.753 75.069 134.613 74.3036 134.333 73.6316C134.072 72.941 133.699 72.353 133.213 71.8676C132.747 71.3636 132.187 70.981 131.533 70.7196C130.899 70.4583 130.208 70.3276 129.461 70.3276C128.715 70.3276 128.015 70.4583 127.361 70.7196C126.727 70.981 126.167 71.3636 125.681 71.8676C125.215 72.353 124.841 72.941 124.561 73.6316C124.3 74.3036 124.169 75.069 124.169 75.9276C124.169 76.7676 124.3 77.533 124.561 78.2236C124.841 78.9143 125.215 79.5116 125.681 80.0156C126.167 80.501 126.727 80.8743 127.361 81.1356C128.015 81.397 128.715 81.5276 129.461 81.5276ZM142.113 85.7276V82.2556L153.649 68.5636L154.321 70.5236H142.365V66.1276H159.249V69.5996L147.713 83.2916L147.041 81.3316H159.669V85.7276H142.113ZM162.097 85.7276V66.1276H167.641V85.7276H162.097ZM181.469 86.1196C179.901 86.1196 178.455 85.8676 177.129 85.3636C175.804 84.8596 174.647 84.1503 173.657 83.2356C172.687 82.3023 171.931 81.2196 171.389 79.9876C170.848 78.7556 170.577 77.4023 170.577 75.9276C170.577 74.453 170.848 73.0996 171.389 71.8676C171.931 70.6356 172.687 69.5623 173.657 68.6476C174.647 67.7143 175.804 66.9956 177.129 66.4916C178.455 65.9876 179.901 65.7356 181.469 65.7356C183.056 65.7356 184.503 65.9876 185.809 66.4916C187.135 66.9956 188.283 67.7143 189.253 68.6476C190.224 69.5623 190.98 70.6356 191.521 71.8676C192.081 73.0996 192.361 74.453 192.361 75.9276C192.361 77.4023 192.081 78.765 191.521 80.0156C190.98 81.2476 190.224 82.321 189.253 83.2356C188.283 84.1503 187.135 84.8596 185.809 85.3636C184.503 85.8676 183.056 86.1196 181.469 86.1196ZM181.469 81.5276C182.216 81.5276 182.907 81.397 183.541 81.1356C184.195 80.8743 184.755 80.501 185.221 80.0156C185.707 79.5116 186.08 78.9143 186.341 78.2236C186.621 77.533 186.761 76.7676 186.761 75.9276C186.761 75.069 186.621 74.3036 186.341 73.6316C186.08 72.941 185.707 72.353 185.221 71.8676C184.755 71.3636 184.195 70.981 183.541 70.7196C182.907 70.4583 182.216 70.3276 181.469 70.3276C180.723 70.3276 180.023 70.4583 179.369 70.7196C178.735 70.981 178.175 71.3636 177.689 71.8676C177.223 72.353 176.849 72.941 176.569 73.6316C176.308 74.3036 176.177 75.069 176.177 75.9276C176.177 76.7676 176.308 77.533 176.569 78.2236C176.849 78.9143 177.223 79.5116 177.689 80.0156C178.175 80.501 178.735 80.8743 179.369 81.1356C180.023 81.397 180.723 81.5276 181.469 81.5276ZM195.265 85.7276V66.1276H199.829L210.637 79.1756H208.481V66.1276H213.913V85.7276H209.349L198.541 72.6796H200.697V85.7276H195.265ZM217.824 85.7276V66.1276H223.368V85.7276H217.824Z" fill="white"/>
</g>
</g>
</g>
<defs>
<filter id="filter0_d_96_1051" x="0.226562" y="0" width="368" height="210" filterUnits="userSpaceOnUse" color-interpolation-filters="sRGB">
<feFlood flood-opacity="0" result="BackgroundImageFix"/>
<feColorMatrix in="SourceAlpha" type="matrix" values="0 0 0 0 0 0 0 0 0 0 0 0 0 0 0 0 0 0 127 0" result="hardAlpha"/>
<feMorphology radius="1" operator="erode" in="SourceAlpha" result="effect1_dropShadow_96_1051"/>
<feOffset dy="3"/>
<feGaussianBlur stdDeviation="2.5"/>
<feComposite in2="hardAlpha" operator="out"/>
<feColorMatrix type="matrix" values="0 0 0 0 0 0 0 0 0 0 0 0 0 0 0 0 0 0 0.15 0"/>
<feBlend mode="normal" in2="BackgroundImageFix" result="effect1_dropShadow_96_1051"/>
<feBlend mode="normal" in="SourceGraphic" in2="effect1_dropShadow_96_1051" result="shape"/>
</filter>
<clipPath id="clip0_96_1051">
<rect x="4.22656" y="1" width="360" height="202" rx="15" fill="white"/>
</clipPath>
</defs>
</svg>
